# xmcd
#
# Track frame offsets: 
#        150
#        20465
#        35855
#        57176
#        74331
#        89039
#        118756
#        135883
#        150711
#        166104
#        183165
#        195920
#        216721
#        229770
#        247308
#        256427
#        268327
#        282077
#        300805
#        313044
#        328999
#
# Disc length: 4597 seconds
#
# Revision: 1
# Processed by: cddbd v1.5.2PL0 Copyright (c) Steve Scherf et al.
# Submitted via: ExactAudioCopy v0.99pb5
#
DISCID=3811f315
DTITLE=R.E.M. - And I Feel Fine... (The Best Of The I.R.S. Years 1982-
DTITLE=1987) Bonus Disc
DYEAR=2006
DGENRE=Rock
TTITLE0=Pilgrimage
TTITLE1=These Days
TTITLE2=Gardening at Night (Demo)
TTITLE3=Radio Free Europe (Hib-Tone)
TTITLE4=Sitting Still (Hib-Tone)
TTITLE5=Life And How To Live It (Live)
TTITLE6=Ages Of You (Live)
TTITLE7=We Walk (Live)
TTITLE8=1,000,000 (Live)
TTITLE9=Finest Worksong (Other Mix)
TTITLE10=Hyena (Demo)
TTITLE11=Theme from Two Steps Onward (Demo)
TTITLE12=Superman
TTITLE13=All The Right Friends (Outtake)
TTITLE14=Mystery To Me (Demo)
TTITLE15=Just a Touch (Live in-studio)
TTITLE16=Bad Day (Outtake)
TTITLE17=King Of Birds
TTITLE18=Swan Swan H (Acoustic Version)
TTITLE19=Disturbance at the Heron House
TTITLE20=Time After Time (AnnElise)
EXTD=
EXTT0=
EXTT1=
EXTT2=
EXTT3=
EXTT4=
EXTT5=
EXTT6=
EXTT7=
EXTT8=
EXTT9=
EXTT10=
EXTT11=
EXTT12=
EXTT13=
EXTT14=
EXTT15=
EXTT16=
EXTT17=
EXTT18=
EXTT19=
EXTT20=
PLAYORDER=
